M48
;Layer_Color=9474304
;FILE_FORMAT=2:5
INCH,LZ
;TYPE=PLATED
T01F00S00C0.01181
T02F00S00C0.03937
;TYPE=NON_PLATED
T04F00S00C0.08071
T05F00S00C0.12598
%
T01
X0011417Y0038976
X00153Y0041284
X0017717Y0038189
X0015354Y0050787
X0011811
X0025707Y0050282
X0025591Y0029921
X0066811Y0030512
X0067779Y0045745
X0067717Y0059764
X0087677Y0060039
X0101654Y0059764
X0119685Y0051968
Y0048819
X0118651Y0041847
X0120472Y003937
X0116453Y0039263
X0122835Y0042126
X0127559Y0041732
X0134205Y0047953
X0139795Y0040318
X0144095Y0039016
X0145852Y0049988
X0155908Y0049921
X0127807Y0058413
X0126772Y0023622
X0129528Y0020866
X0122104Y0018686
X0124504Y0067151
X0121798Y0069394
X0129975Y006795
X0134044Y0068481
X0144098Y0067903
X0132342Y0091918
X0133661Y0096811
X0129295Y0096813
X0125177Y0094363
X0122706Y0087938
X0120591Y0084253
X0112409Y0080424
X0108661Y0080315
X0109606Y0092205
X0112992Y0092165
X0101725Y0093393
X0104331Y0096496
X01Y0087795
X009685Y0072047
X0082284Y0089764
X0060236Y008189
X0057087Y0080315
T02
X0035709Y0004921
X0045709
X0055709
X0065709
X0075709
X0085709
X0095709
X0105709
X0115709
X0125709
X0095709Y0094921
X0085709
X0075709
X0065709
T04
X0080709Y0049921
T05
X0017717Y0018425
X0143701
Y0081417
X0017717
M30
