G04*
G04 #@! TF.GenerationSoftware,Altium Limited,Altium Designer,24.6.1 (21)*
G04*
G04 Layer_Color=128*
%FSLAX44Y44*%
%MOMM*%
G71*
G04*
G04 #@! TF.SameCoordinates,5CACC730-4BFA-47F6-9E49-546720DBC57C*
G04*
G04*
G04 #@! TF.FilePolarity,Positive*
G04*
G01*
G75*
%ADD74C,0.0508*%
D74*
X212700Y12500D02*
X222700D01*
X217700Y7500D02*
Y17500D01*
X187300Y12500D02*
X197300D01*
X192300Y7500D02*
Y17500D01*
X349000Y46800D02*
X381000D01*
X365000Y30800D02*
Y62800D01*
X349000Y206800D02*
X381000D01*
X365000Y190800D02*
Y222800D01*
X29000Y206800D02*
X61000D01*
X45000Y190800D02*
Y222800D01*
X29000Y46800D02*
X61000D01*
X45000Y30800D02*
Y62800D01*
X263500Y12500D02*
X273500D01*
X268500Y7500D02*
Y17500D01*
X288900Y12500D02*
X298900D01*
X293900Y7500D02*
Y17500D01*
X194750Y126800D02*
X215250D01*
X205000Y116550D02*
Y137050D01*
X242250Y126800D02*
X257750D01*
X250000Y119050D02*
Y134550D01*
X314300Y12500D02*
X324300D01*
X319300Y7500D02*
Y17500D01*
X238100Y12500D02*
X248100D01*
X243100Y7500D02*
Y17500D01*
X85700Y12500D02*
X95700D01*
X90700Y7500D02*
Y17500D01*
X111100Y12500D02*
X121100D01*
X116100Y7500D02*
Y17500D01*
X136500Y12500D02*
X146500D01*
X141500Y7500D02*
Y17500D01*
X161900Y12500D02*
X171900D01*
X166900Y7500D02*
Y17500D01*
X238100Y241100D02*
X248100D01*
X243100Y236100D02*
Y246100D01*
X212700Y241100D02*
X222700D01*
X217700Y236100D02*
Y246100D01*
X187300Y241100D02*
X197300D01*
X192300Y236100D02*
Y246100D01*
X161900Y241100D02*
X171900D01*
X166900Y236100D02*
Y246100D01*
X170500Y151800D02*
X173500D01*
X172000Y150300D02*
Y153300D01*
X394505Y126800D02*
X397505D01*
X396005Y125300D02*
Y128300D01*
X244500Y183000D02*
X247500D01*
X246000Y181500D02*
Y184500D01*
X143500Y204000D02*
X146500D01*
X145000Y202500D02*
Y205500D01*
X151500Y208000D02*
X154500D01*
X153000Y206500D02*
Y209500D01*
X327500Y53000D02*
X330500D01*
X329000Y51500D02*
Y54500D01*
X308644Y47461D02*
X311644D01*
X310144Y45961D02*
Y48961D01*
X170658Y116193D02*
X173658D01*
X172158Y114693D02*
Y117693D01*
X63795Y127716D02*
X66795D01*
X65295Y126216D02*
Y129216D01*
X364509Y172474D02*
X367509D01*
X366009Y170974D02*
Y173974D01*
X353579Y102408D02*
X356579D01*
X355079Y100908D02*
Y103908D01*
X307866Y176262D02*
X310866D01*
X309366Y174762D02*
Y177762D01*
X221200Y152500D02*
X224200D01*
X222700Y151000D02*
Y154000D01*
X168200Y77500D02*
X171200D01*
X169700Y76000D02*
Y79000D01*
X320500Y60000D02*
X323500D01*
X322000Y58500D02*
Y61500D01*
X294291Y99727D02*
X297291D01*
X295791Y98227D02*
Y101227D01*
X304500Y100000D02*
X307500D01*
X306000Y98500D02*
Y101500D01*
X310500Y107000D02*
X313500D01*
X312000Y105500D02*
Y108500D01*
X299874Y106292D02*
X302875D01*
X301374Y104792D02*
Y107792D01*
X302500Y132000D02*
X305500D01*
X304000Y130500D02*
Y133500D01*
X302500Y124000D02*
X305500D01*
X304000Y122500D02*
Y125500D01*
X43500Y97000D02*
X46500D01*
X45000Y95500D02*
Y98500D01*
X339380Y121800D02*
X342380D01*
X340880Y120300D02*
Y123300D01*
X322500Y106000D02*
X325500D01*
X324000Y104500D02*
Y107500D01*
X323130Y148370D02*
X326130D01*
X324630Y146870D02*
Y149870D01*
X252500Y223000D02*
X255500D01*
X254000Y221500D02*
Y224500D01*
X256700Y151800D02*
X259700D01*
X258200Y150300D02*
Y153300D01*
X207500Y228000D02*
X210500D01*
X209000Y226500D02*
Y229500D01*
X316448Y239682D02*
X319448D01*
X317948Y238182D02*
Y241182D01*
X338000Y245900D02*
X341000D01*
X339500Y244400D02*
Y247400D01*
X326909Y245906D02*
X329909D01*
X328409Y244406D02*
Y247406D01*
X310172Y223361D02*
X313172D01*
X311672Y221861D02*
Y224862D01*
X304802Y214003D02*
X307802D01*
X306302Y212503D02*
Y215503D01*
X364500Y99100D02*
X367500D01*
X366000Y97600D02*
Y100600D01*
X263500Y245100D02*
X266500D01*
X265000Y243600D02*
Y246600D01*
X256881Y237217D02*
X259881D01*
X258381Y235717D02*
Y238717D01*
X37361Y104861D02*
X40361D01*
X38861Y103361D02*
Y106361D01*
X28500Y129000D02*
X31500D01*
X30000Y127500D02*
Y130500D01*
X37500Y129000D02*
X40500D01*
X39000Y127500D02*
Y130500D01*
X27500Y99000D02*
X30500D01*
X29000Y97500D02*
Y100500D01*
X274500Y204000D02*
X277500D01*
X276000Y202500D02*
Y205500D01*
X284020Y204277D02*
X287020D01*
X285520Y202778D02*
Y205777D01*
X276900Y234200D02*
X279900D01*
X278400Y232700D02*
Y235700D01*
X338973Y173942D02*
X341973D01*
X340473Y172442D02*
Y175442D01*
X285500Y234100D02*
X288500D01*
X287000Y232600D02*
Y235600D01*
X328636Y172592D02*
X331636D01*
X330136Y171092D02*
Y174092D01*
X334648Y233472D02*
X337648D01*
X336148Y231972D02*
Y234972D01*
X314741Y170564D02*
X317741D01*
X316241Y169065D02*
Y172064D01*
X368965Y126968D02*
X371965D01*
X370465Y125468D02*
Y128468D01*
X63500Y76000D02*
X66500D01*
X65000Y74500D02*
Y77500D01*
M02*
