G04*
G04 #@! TF.GenerationSoftware,Altium Limited,Altium Designer,24.6.1 (21)*
G04*
G04 Layer_Color=8388736*
%FSLAX44Y44*%
%MOMM*%
G71*
G04*
G04 #@! TF.SameCoordinates,5CACC730-4BFA-47F6-9E49-546720DBC57C*
G04*
G04*
G04 #@! TF.FilePolarity,Negative*
G04*
G01*
G75*
%ADD22C,2.0000*%
G04:AMPARAMS|DCode=23|XSize=0.97mm|YSize=1.07mm|CornerRadius=0.2718mm|HoleSize=0mm|Usage=FLASHONLY|Rotation=90.000|XOffset=0mm|YOffset=0mm|HoleType=Round|Shape=RoundedRectangle|*
%AMROUNDEDRECTD23*
21,1,0.9700,0.5263,0,0,90.0*
21,1,0.4263,1.0700,0,0,90.0*
1,1,0.5437,0.2632,0.2132*
1,1,0.5437,0.2632,-0.2132*
1,1,0.5437,-0.2632,-0.2132*
1,1,0.5437,-0.2632,0.2132*
%
%ADD23ROUNDEDRECTD23*%
G04:AMPARAMS|DCode=24|XSize=0.73mm|YSize=0.68mm|CornerRadius=0.2008mm|HoleSize=0mm|Usage=FLASHONLY|Rotation=270.000|XOffset=0mm|YOffset=0mm|HoleType=Round|Shape=RoundedRectangle|*
%AMROUNDEDRECTD24*
21,1,0.7300,0.2784,0,0,270.0*
21,1,0.3284,0.6800,0,0,270.0*
1,1,0.4016,-0.1392,-0.1642*
1,1,0.4016,-0.1392,0.1642*
1,1,0.4016,0.1392,0.1642*
1,1,0.4016,0.1392,-0.1642*
%
%ADD24ROUNDEDRECTD24*%
G04:AMPARAMS|DCode=25|XSize=0.65mm|YSize=0.68mm|CornerRadius=0.1903mm|HoleSize=0mm|Usage=FLASHONLY|Rotation=90.000|XOffset=0mm|YOffset=0mm|HoleType=Round|Shape=RoundedRectangle|*
%AMROUNDEDRECTD25*
21,1,0.6500,0.2995,0,0,90.0*
21,1,0.2695,0.6800,0,0,90.0*
1,1,0.3805,0.1498,0.1348*
1,1,0.3805,0.1498,-0.1348*
1,1,0.3805,-0.1498,-0.1348*
1,1,0.3805,-0.1498,0.1348*
%
%ADD25ROUNDEDRECTD25*%
%ADD26R,0.8000X0.4000*%
%ADD27R,0.4000X0.8000*%
%ADD28R,1.9000X1.3000*%
%ADD29R,1.6500X0.7000*%
G04:AMPARAMS|DCode=30|XSize=0.82mm|YSize=0.97mm|CornerRadius=0.23mm|HoleSize=0mm|Usage=FLASHONLY|Rotation=0.000|XOffset=0mm|YOffset=0mm|HoleType=Round|Shape=RoundedRectangle|*
%AMROUNDEDRECTD30*
21,1,0.8200,0.5100,0,0,0.0*
21,1,0.3600,0.9700,0,0,0.0*
1,1,0.4600,0.1800,-0.2550*
1,1,0.4600,-0.1800,-0.2550*
1,1,0.4600,-0.1800,0.2550*
1,1,0.4600,0.1800,0.2550*
%
%ADD30ROUNDEDRECTD30*%
G04:AMPARAMS|DCode=31|XSize=0.65mm|YSize=0.68mm|CornerRadius=0.1903mm|HoleSize=0mm|Usage=FLASHONLY|Rotation=180.000|XOffset=0mm|YOffset=0mm|HoleType=Round|Shape=RoundedRectangle|*
%AMROUNDEDRECTD31*
21,1,0.6500,0.2995,0,0,180.0*
21,1,0.2695,0.6800,0,0,180.0*
1,1,0.3805,-0.1348,0.1498*
1,1,0.3805,0.1348,0.1498*
1,1,0.3805,0.1348,-0.1498*
1,1,0.3805,-0.1348,-0.1498*
%
%ADD31ROUNDEDRECTD31*%
G04:AMPARAMS|DCode=32|XSize=0.9mm|YSize=1.1mm|CornerRadius=0.25mm|HoleSize=0mm|Usage=FLASHONLY|Rotation=0.000|XOffset=0mm|YOffset=0mm|HoleType=Round|Shape=RoundedRectangle|*
%AMROUNDEDRECTD32*
21,1,0.9000,0.6000,0,0,0.0*
21,1,0.4000,1.1000,0,0,0.0*
1,1,0.5000,0.2000,-0.3000*
1,1,0.5000,-0.2000,-0.3000*
1,1,0.5000,-0.2000,0.3000*
1,1,0.5000,0.2000,0.3000*
%
%ADD32ROUNDEDRECTD32*%
%ADD33R,2.5000X1.4000*%
%ADD34R,3.3000X2.6000*%
%ADD35R,4.1000X3.8500*%
%ADD36C,2.1000*%
%ADD37C,5.6000*%
%ADD38C,0.6000*%
%ADD39C,1.9000*%
G36*
X296598Y210593D02*
X296693Y210564D01*
X296779Y210518D01*
X296856Y210455D01*
X296918Y210379D01*
X296965Y210292D01*
X296993Y210198D01*
X297003Y210100D01*
Y208600D01*
X296993Y208502D01*
X296965Y208408D01*
X296918Y208321D01*
X296856Y208245D01*
X296856Y208245D01*
X295356Y206745D01*
X295280Y206682D01*
X295193Y206636D01*
X295171Y206629D01*
X295098Y206607D01*
X295049Y206602D01*
X295000Y206598D01*
X295000Y206598D01*
X291500D01*
X291402Y206607D01*
X291308Y206636D01*
X291221Y206682D01*
X291145Y206745D01*
X291083Y206821D01*
X291036Y206908D01*
X291008Y207002D01*
X290998Y207100D01*
Y210100D01*
X291008Y210198D01*
X291036Y210292D01*
X291083Y210379D01*
X291145Y210455D01*
X291221Y210518D01*
X291308Y210564D01*
X291402Y210593D01*
X291500Y210602D01*
X296500D01*
X296598Y210593D01*
D02*
G37*
G36*
X299598Y207593D02*
X299693Y207564D01*
X299779Y207518D01*
X299856Y207455D01*
X299918Y207379D01*
X299965Y207292D01*
X299993Y207198D01*
X300003Y207100D01*
Y202100D01*
X299993Y202002D01*
X299965Y201908D01*
X299918Y201821D01*
X299856Y201745D01*
X299779Y201682D01*
X299693Y201636D01*
X299598Y201607D01*
X299500Y201598D01*
X296500D01*
X296402Y201607D01*
X296308Y201636D01*
X296221Y201682D01*
X296145Y201745D01*
X296083Y201821D01*
X296036Y201908D01*
X296008Y202002D01*
X295998Y202100D01*
Y205600D01*
X295998Y205600D01*
X296003Y205649D01*
X296008Y205698D01*
X296030Y205770D01*
X296036Y205792D01*
X296083Y205879D01*
X296145Y205955D01*
X297645Y207455D01*
X297645Y207455D01*
X297721Y207518D01*
X297808Y207564D01*
X297902Y207593D01*
X298000Y207603D01*
X299500D01*
X299598Y207593D01*
D02*
G37*
G36*
Y235593D02*
X299693Y235564D01*
X299779Y235518D01*
X299856Y235455D01*
X299918Y235379D01*
X299965Y235292D01*
X299993Y235198D01*
X300003Y235100D01*
Y230100D01*
X299993Y230002D01*
X299965Y229908D01*
X299918Y229821D01*
X299856Y229745D01*
X299779Y229682D01*
X299693Y229636D01*
X299598Y229607D01*
X299500Y229598D01*
X298000D01*
X297902Y229607D01*
X297808Y229636D01*
X297721Y229682D01*
X297645Y229745D01*
X297645Y229745D01*
X296145Y231245D01*
X296083Y231321D01*
X296036Y231408D01*
X296030Y231430D01*
X296008Y231502D01*
X296003Y231551D01*
X295998Y231600D01*
X295998Y231600D01*
Y235100D01*
X296008Y235198D01*
X296036Y235292D01*
X296083Y235379D01*
X296145Y235455D01*
X296221Y235518D01*
X296308Y235564D01*
X296402Y235593D01*
X296500Y235602D01*
X299500D01*
X299598Y235593D01*
D02*
G37*
G36*
X295049Y230598D02*
X295098Y230593D01*
X295171Y230571D01*
X295193Y230564D01*
X295280Y230518D01*
X295356Y230455D01*
X296856Y228955D01*
X296856Y228955D01*
X296918Y228879D01*
X296965Y228792D01*
X296993Y228698D01*
X297003Y228600D01*
Y227100D01*
X296993Y227002D01*
X296965Y226908D01*
X296918Y226821D01*
X296856Y226745D01*
X296779Y226682D01*
X296693Y226636D01*
X296598Y226607D01*
X296500Y226598D01*
X291500D01*
X291402Y226607D01*
X291308Y226636D01*
X291221Y226682D01*
X291145Y226745D01*
X291083Y226821D01*
X291036Y226908D01*
X291008Y227002D01*
X290998Y227100D01*
Y230100D01*
X291008Y230198D01*
X291036Y230292D01*
X291083Y230379D01*
X291145Y230455D01*
X291221Y230518D01*
X291308Y230564D01*
X291402Y230593D01*
X291500Y230602D01*
X295000D01*
X295000Y230602D01*
X295049Y230598D01*
D02*
G37*
G36*
X324598Y210593D02*
X324693Y210564D01*
X324780Y210518D01*
X324856Y210455D01*
X324918Y210379D01*
X324965Y210292D01*
X324993Y210198D01*
X325003Y210100D01*
Y207100D01*
X324993Y207002D01*
X324965Y206908D01*
X324918Y206821D01*
X324856Y206745D01*
X324780Y206682D01*
X324693Y206636D01*
X324598Y206607D01*
X324500Y206598D01*
X321001D01*
X321000Y206598D01*
X320951Y206602D01*
X320902Y206607D01*
X320830Y206629D01*
X320808Y206636D01*
X320721Y206682D01*
X320645Y206745D01*
X319145Y208245D01*
X319145Y208245D01*
X319083Y208321D01*
X319036Y208408D01*
X319008Y208502D01*
X318998Y208600D01*
Y210100D01*
X319008Y210198D01*
X319036Y210292D01*
X319083Y210379D01*
X319145Y210455D01*
X319221Y210518D01*
X319308Y210564D01*
X319402Y210593D01*
X319500Y210602D01*
X324500D01*
X324598Y210593D01*
D02*
G37*
G36*
X318049Y207598D02*
X318098Y207593D01*
X318171Y207571D01*
X318193Y207564D01*
X318279Y207518D01*
X318356Y207455D01*
X319855Y205956D01*
X319856Y205955D01*
X319918Y205879D01*
X319965Y205792D01*
X319993Y205698D01*
X320003Y205600D01*
Y202100D01*
X319993Y202002D01*
X319965Y201908D01*
X319918Y201821D01*
X319856Y201745D01*
X319779Y201682D01*
X319693Y201636D01*
X319598Y201607D01*
X319500Y201598D01*
X316500D01*
X316402Y201607D01*
X316308Y201636D01*
X316221Y201682D01*
X316145Y201745D01*
X316083Y201821D01*
X316036Y201908D01*
X316008Y202002D01*
X315998Y202100D01*
Y207100D01*
X316008Y207198D01*
X316036Y207292D01*
X316083Y207379D01*
X316145Y207455D01*
X316221Y207518D01*
X316308Y207564D01*
X316402Y207593D01*
X316500Y207603D01*
X318000D01*
X318000Y207603D01*
X318049Y207598D01*
D02*
G37*
G36*
X319598Y235593D02*
X319693Y235564D01*
X319779Y235518D01*
X319856Y235455D01*
X319918Y235379D01*
X319965Y235292D01*
X319993Y235198D01*
X320003Y235100D01*
Y231600D01*
X320003Y231600D01*
X319998Y231551D01*
X319993Y231502D01*
X319971Y231430D01*
X319965Y231408D01*
X319918Y231321D01*
X319856Y231245D01*
X318356Y229745D01*
X318356Y229745D01*
X318279Y229682D01*
X318193Y229636D01*
X318098Y229607D01*
X318000Y229598D01*
X316500D01*
X316402Y229607D01*
X316308Y229636D01*
X316221Y229682D01*
X316145Y229745D01*
X316083Y229821D01*
X316036Y229908D01*
X316008Y230002D01*
X315998Y230100D01*
Y235100D01*
X316008Y235198D01*
X316036Y235292D01*
X316083Y235379D01*
X316145Y235455D01*
X316221Y235518D01*
X316308Y235564D01*
X316402Y235593D01*
X316500Y235602D01*
X319500D01*
X319598Y235593D01*
D02*
G37*
G36*
X324598Y230593D02*
X324693Y230564D01*
X324780Y230518D01*
X324856Y230455D01*
X324918Y230379D01*
X324965Y230292D01*
X324993Y230198D01*
X325003Y230100D01*
Y227100D01*
X324993Y227002D01*
X324965Y226908D01*
X324918Y226821D01*
X324856Y226745D01*
X324780Y226682D01*
X324693Y226636D01*
X324598Y226607D01*
X324500Y226598D01*
X319500D01*
X319402Y226607D01*
X319308Y226636D01*
X319221Y226682D01*
X319145Y226745D01*
X319083Y226821D01*
X319036Y226908D01*
X319008Y227002D01*
X318998Y227100D01*
Y228600D01*
X318998Y228600D01*
X319003Y228649D01*
X319008Y228698D01*
X319030Y228770D01*
X319036Y228792D01*
X319083Y228879D01*
X319145Y228955D01*
X320645Y230455D01*
X320645Y230455D01*
X320721Y230518D01*
X320808Y230564D01*
X320902Y230593D01*
X321000Y230602D01*
X324500D01*
X324598Y230593D01*
D02*
G37*
D22*
X13000Y78000D02*
D03*
Y175600D02*
D03*
X397000Y175600D02*
D03*
D23*
X268500Y226100D02*
D03*
Y211100D02*
D03*
D24*
X280500Y214250D02*
D03*
Y222950D02*
D03*
D25*
X335630Y165550D02*
D03*
Y156050D02*
D03*
X346630Y88050D02*
D03*
Y97550D02*
D03*
Y165550D02*
D03*
Y156050D02*
D03*
X324630Y88050D02*
D03*
Y97550D02*
D03*
Y165550D02*
D03*
Y156050D02*
D03*
X335630Y88050D02*
D03*
Y97550D02*
D03*
X70390Y142550D02*
D03*
Y133050D02*
D03*
Y112050D02*
D03*
Y121550D02*
D03*
D26*
X295000Y223600D02*
D03*
Y218600D02*
D03*
Y213600D02*
D03*
X321000Y223600D02*
D03*
Y218600D02*
D03*
Y213600D02*
D03*
D27*
X303000Y205600D02*
D03*
X308000D02*
D03*
X313000D02*
D03*
Y231600D02*
D03*
X308000D02*
D03*
X303000D02*
D03*
D28*
X13995Y98800D02*
D03*
Y154800D02*
D03*
X396005Y154800D02*
D03*
Y98800D02*
D03*
D29*
X52745Y121800D02*
D03*
Y131800D02*
D03*
Y141800D02*
D03*
Y111800D02*
D03*
X357255Y131800D02*
D03*
Y121800D02*
D03*
Y111800D02*
D03*
Y141800D02*
D03*
D30*
X44250Y85000D02*
D03*
X29750Y85000D02*
D03*
D31*
X55250D02*
D03*
X64750Y85000D02*
D03*
D32*
X322000Y188000D02*
D03*
X311000D02*
D03*
D33*
X278000Y151800D02*
D03*
Y101800D02*
D03*
X135000D02*
D03*
X278000Y126800D02*
D03*
X135000Y151800D02*
D03*
D34*
X284000Y176800D02*
D03*
Y76800D02*
D03*
X126000D02*
D03*
Y176800D02*
D03*
D35*
X205000Y63050D02*
D03*
Y190550D02*
D03*
D36*
X217700Y12500D02*
D03*
X192300D02*
D03*
X268500D02*
D03*
X293900D02*
D03*
X319300D02*
D03*
X243100D02*
D03*
X90700D02*
D03*
X116100D02*
D03*
X141500D02*
D03*
X166900D02*
D03*
D37*
X365000Y46800D02*
D03*
Y206800D02*
D03*
X45000D02*
D03*
Y46800D02*
D03*
D38*
X205000Y126800D02*
D03*
X250000D02*
D03*
D39*
X243100Y241100D02*
D03*
X217700D02*
D03*
X192300D02*
D03*
X166900D02*
D03*
M02*
