G04*
G04 #@! TF.GenerationSoftware,Altium Limited,Altium Designer,24.6.1 (21)*
G04*
G04 Layer_Physical_Order=1*
G04 Layer_Color=255*
%FSLAX44Y44*%
%MOMM*%
G71*
G04*
G04 #@! TF.SameCoordinates,5CACC730-4BFA-47F6-9E49-546720DBC57C*
G04*
G04*
G04 #@! TF.FilePolarity,Positive*
G04*
G01*
G75*
G04:AMPARAMS|DCode=10|XSize=0.87mm|YSize=0.97mm|CornerRadius=0.2218mm|HoleSize=0mm|Usage=FLASHONLY|Rotation=90.000|XOffset=0mm|YOffset=0mm|HoleType=Round|Shape=RoundedRectangle|*
%AMROUNDEDRECTD10*
21,1,0.8700,0.5263,0,0,90.0*
21,1,0.4263,0.9700,0,0,90.0*
1,1,0.4437,0.2632,0.2132*
1,1,0.4437,0.2632,-0.2132*
1,1,0.4437,-0.2632,-0.2132*
1,1,0.4437,-0.2632,0.2132*
%
%ADD10ROUNDEDRECTD10*%
G04:AMPARAMS|DCode=11|XSize=0.63mm|YSize=0.58mm|CornerRadius=0.1508mm|HoleSize=0mm|Usage=FLASHONLY|Rotation=270.000|XOffset=0mm|YOffset=0mm|HoleType=Round|Shape=RoundedRectangle|*
%AMROUNDEDRECTD11*
21,1,0.6300,0.2784,0,0,270.0*
21,1,0.3284,0.5800,0,0,270.0*
1,1,0.3016,-0.1392,-0.1642*
1,1,0.3016,-0.1392,0.1642*
1,1,0.3016,0.1392,0.1642*
1,1,0.3016,0.1392,-0.1642*
%
%ADD11ROUNDEDRECTD11*%
G04:AMPARAMS|DCode=12|XSize=0.55mm|YSize=0.58mm|CornerRadius=0.1403mm|HoleSize=0mm|Usage=FLASHONLY|Rotation=90.000|XOffset=0mm|YOffset=0mm|HoleType=Round|Shape=RoundedRectangle|*
%AMROUNDEDRECTD12*
21,1,0.5500,0.2995,0,0,90.0*
21,1,0.2695,0.5800,0,0,90.0*
1,1,0.2805,0.1498,0.1348*
1,1,0.2805,0.1498,-0.1348*
1,1,0.2805,-0.1498,-0.1348*
1,1,0.2805,-0.1498,0.1348*
%
%ADD12ROUNDEDRECTD12*%
%ADD13R,0.7000X0.3000*%
%ADD14R,0.3000X0.7000*%
%ADD15R,1.8000X1.2000*%
%ADD16R,1.5500X0.6000*%
G04:AMPARAMS|DCode=17|XSize=0.72mm|YSize=0.87mm|CornerRadius=0.18mm|HoleSize=0mm|Usage=FLASHONLY|Rotation=0.000|XOffset=0mm|YOffset=0mm|HoleType=Round|Shape=RoundedRectangle|*
%AMROUNDEDRECTD17*
21,1,0.7200,0.5100,0,0,0.0*
21,1,0.3600,0.8700,0,0,0.0*
1,1,0.3600,0.1800,-0.2550*
1,1,0.3600,-0.1800,-0.2550*
1,1,0.3600,-0.1800,0.2550*
1,1,0.3600,0.1800,0.2550*
%
%ADD17ROUNDEDRECTD17*%
G04:AMPARAMS|DCode=18|XSize=0.55mm|YSize=0.58mm|CornerRadius=0.1403mm|HoleSize=0mm|Usage=FLASHONLY|Rotation=180.000|XOffset=0mm|YOffset=0mm|HoleType=Round|Shape=RoundedRectangle|*
%AMROUNDEDRECTD18*
21,1,0.5500,0.2995,0,0,180.0*
21,1,0.2695,0.5800,0,0,180.0*
1,1,0.2805,-0.1348,0.1498*
1,1,0.2805,0.1348,0.1498*
1,1,0.2805,0.1348,-0.1498*
1,1,0.2805,-0.1348,-0.1498*
%
%ADD18ROUNDEDRECTD18*%
%ADD19R,2.4000X1.3000*%
%ADD20R,3.2000X2.5000*%
%ADD21R,4.0000X3.7500*%
%ADD38C,0.6000*%
%ADD40C,1.0000*%
%AMCUSTOMSHAPE41*
4,1,5,0.1000,-0.1500,0.2500,0.0000,0.2500,0.1500,-0.2500,0.1500,-0.2500,-0.1500,0.1000,-0.1500,0.0*%
%ADD41CUSTOMSHAPE41*%

%AMCUSTOMSHAPE42*
4,1,5,0.1500,-0.2500,-0.1500,-0.2500,-0.1500,0.1000,0.0000,0.2500,0.1500,0.2500,0.1500,-0.2500,0.0*%
%ADD42CUSTOMSHAPE42*%

%AMCUSTOMSHAPE43*
4,1,5,0.1500,-0.2500,-0.1500,-0.2500,-0.1500,0.2500,0.0000,0.2500,0.1500,0.1000,0.1500,-0.2500,0.0*%
%ADD43CUSTOMSHAPE43*%

%AMCUSTOMSHAPE44*
4,1,5,0.2500,0.1500,0.2500,-0.1500,-0.2500,-0.1500,-0.2500,0.0000,-0.1000,0.1500,0.2500,0.1500,0.0*%
%ADD44CUSTOMSHAPE44*%

%AMCUSTOMSHAPE45*
4,1,5,0.0000,-0.2500,-0.1500,-0.2500,-0.1500,0.2500,0.1500,0.2500,0.1500,-0.1000,0.0000,-0.2500,0.0*%
%ADD45CUSTOMSHAPE45*%

%AMCUSTOMSHAPE46*
4,1,5,0.2500,0.0000,0.2500,-0.1500,-0.2500,-0.1500,-0.2500,0.1500,0.1000,0.1500,0.2500,0.0000,0.0*%
%ADD46CUSTOMSHAPE46*%

%AMCUSTOMSHAPE47*
4,1,5,-0.1500,-0.1000,0.0000,-0.2500,0.1500,-0.2500,0.1500,0.2500,-0.1500,0.2500,-0.1500,-0.1000,0.0*%
%ADD47CUSTOMSHAPE47*%

%AMCUSTOMSHAPE48*
4,1,5,0.2500,0.1500,0.2500,-0.1500,-0.1000,-0.1500,-0.2500,0.0000,-0.2500,0.1500,0.2500,0.1500,0.0*%
%ADD48CUSTOMSHAPE48*%

G04:AMPARAMS|DCode=49|XSize=0.8mm|YSize=1mm|CornerRadius=0.2mm|HoleSize=0mm|Usage=FLASHONLY|Rotation=0.000|XOffset=0mm|YOffset=0mm|HoleType=Round|Shape=RoundedRectangle|*
%AMROUNDEDRECTD49*
21,1,0.8000,0.6000,0,0,0.0*
21,1,0.4000,1.0000,0,0,0.0*
1,1,0.4000,0.2000,-0.3000*
1,1,0.4000,-0.2000,-0.3000*
1,1,0.4000,-0.2000,0.3000*
1,1,0.4000,0.2000,0.3000*
%
%ADD49ROUNDEDRECTD49*%
%ADD50C,1.0000*%
%ADD51C,0.1500*%
%ADD52C,0.3000*%
%ADD53C,1.5000*%
%ADD54C,0.5000*%
%ADD55C,0.4000*%
%ADD56C,0.2200*%
%ADD57C,0.2000*%
%ADD58C,1.7000*%
%ADD59C,3.0000*%
%ADD60C,0.5000*%
G36*
X208878Y248542D02*
X208498Y248161D01*
X206984Y245539D01*
X206200Y242614D01*
Y239586D01*
X206984Y236661D01*
X207451Y235853D01*
X207452Y235844D01*
X206519Y233467D01*
X205601Y233087D01*
X203913Y231399D01*
X203000Y229193D01*
Y226807D01*
X203913Y224601D01*
X205601Y222913D01*
X207806Y222000D01*
X210194D01*
X212399Y222913D01*
X213662Y224177D01*
X230000D01*
X231463Y224468D01*
X232704Y225296D01*
X238110Y230702D01*
X238661Y230384D01*
X241586Y229600D01*
X244614D01*
X247539Y230384D01*
X250161Y231898D01*
X251409Y233145D01*
X252268Y233452D01*
X253728Y232427D01*
X253639Y230403D01*
X253135Y230065D01*
X251548Y228479D01*
X250601Y228087D01*
X248913Y226399D01*
X248000Y224193D01*
Y221807D01*
X248913Y219601D01*
X250601Y217913D01*
X252806Y217000D01*
X255194D01*
X257399Y217913D01*
X259087Y219601D01*
X259456Y220492D01*
X261915D01*
X262107Y220206D01*
X263245Y219445D01*
X263334Y217447D01*
X263261Y217212D01*
X262438Y216662D01*
X261387Y215088D01*
X261017Y213232D01*
Y212100D01*
X268500D01*
Y211100D01*
X269500D01*
Y204117D01*
X271132D01*
X272989Y204486D01*
X274563Y205538D01*
X275614Y207112D01*
X275712Y207604D01*
X276917Y208393D01*
X277917Y208718D01*
X278705Y208561D01*
X279512Y207509D01*
X279938Y206481D01*
X279520Y205471D01*
Y203084D01*
X280062Y201775D01*
X278923Y199775D01*
X258235D01*
X256772Y199484D01*
X255531Y198655D01*
X245876Y189000D01*
X244806D01*
X242601Y188086D01*
X240913Y186399D01*
X240000Y184193D01*
Y181807D01*
X240913Y179601D01*
X242601Y177913D01*
X244806Y177000D01*
X245965D01*
X246793Y175000D01*
X228116Y156323D01*
X227362D01*
X226099Y157587D01*
X223894Y158500D01*
X221507D01*
X219301Y157587D01*
X217614Y155899D01*
X216700Y153694D01*
Y151307D01*
X217614Y149101D01*
X219301Y147414D01*
X221507Y146500D01*
X223894D01*
X226099Y147414D01*
X227362Y148677D01*
X229700D01*
X231163Y148968D01*
X232404Y149796D01*
X256404Y173797D01*
X257233Y175037D01*
X257524Y176500D01*
Y184260D01*
X260760Y187497D01*
X265460D01*
Y177800D01*
X284000D01*
Y175800D01*
X265460D01*
Y163300D01*
X265460Y161760D01*
X263651Y161300D01*
X263000D01*
Y159869D01*
X258200D01*
X256112Y159594D01*
X254165Y158788D01*
X252494Y157506D01*
X251212Y155835D01*
X250406Y153889D01*
X250131Y151800D01*
X250406Y149712D01*
X251212Y147766D01*
X252494Y146094D01*
X254165Y144812D01*
X256112Y144006D01*
X258200Y143731D01*
X263000D01*
Y142300D01*
X293000D01*
Y159760D01*
X293000Y161300D01*
X294810Y161760D01*
X302540D01*
Y171989D01*
X303309Y172376D01*
X304540Y172603D01*
X305967Y171175D01*
X308173Y170262D01*
X310241D01*
Y169371D01*
X311154Y167166D01*
X312842Y165478D01*
X315047Y164564D01*
X317434D01*
X318883Y163000D01*
X318986Y162485D01*
X319059Y162376D01*
X319845Y160800D01*
X319059Y159225D01*
X318986Y159115D01*
X318644Y157398D01*
Y154703D01*
X318986Y152985D01*
X319696Y151921D01*
X319544Y151769D01*
X318630Y149563D01*
Y147176D01*
X319544Y144971D01*
X321231Y143283D01*
X323437Y142370D01*
X325824D01*
X328029Y143283D01*
X329717Y144971D01*
X330630Y147176D01*
Y149343D01*
X331290Y149950D01*
X332372Y150584D01*
X332415Y150555D01*
X334133Y150214D01*
X337128D01*
X338846Y150555D01*
X340302Y151529D01*
X341959D01*
X343415Y150555D01*
X345133Y150214D01*
X348128D01*
X349846Y150555D01*
X351302Y151529D01*
X352275Y152985D01*
X352617Y154703D01*
Y157398D01*
X352275Y159115D01*
X352202Y159225D01*
X351910Y159810D01*
X352899Y161727D01*
X360750D01*
X362214Y162018D01*
X363454Y162847D01*
X365653Y165045D01*
X366482Y166286D01*
X366519Y166474D01*
X367203D01*
X369408Y167387D01*
X371096Y169075D01*
X372009Y171280D01*
Y173667D01*
X371582Y174699D01*
X372584Y176997D01*
X374532Y177465D01*
X379004Y179317D01*
X383131Y181846D01*
X383472Y182138D01*
X385136Y180929D01*
X384335Y178994D01*
X383888Y175600D01*
X384335Y172206D01*
X385645Y169044D01*
X387729Y166328D01*
X389016Y165340D01*
X388338Y163340D01*
X384465D01*
Y155800D01*
X396005D01*
Y154800D01*
X397005D01*
Y146260D01*
X406941D01*
X406941Y107340D01*
X397005D01*
Y98800D01*
Y90260D01*
X406941D01*
X406941Y45000D01*
X406941Y42251D01*
X406224Y36800D01*
X404801Y31489D01*
X402697Y26410D01*
X399948Y21649D01*
X396601Y17287D01*
X392713Y13399D01*
X388351Y10052D01*
X383590Y7303D01*
X380000Y5816D01*
X378511Y5199D01*
X373200Y3776D01*
X367749Y3059D01*
X365000Y3059D01*
X328951D01*
X328122Y5059D01*
X328503Y5439D01*
X330017Y8061D01*
X330800Y10986D01*
Y14014D01*
X330017Y16939D01*
X328503Y19561D01*
X326361Y21702D01*
X323739Y23216D01*
X323124Y23381D01*
Y30900D01*
X322833Y32363D01*
X322004Y33604D01*
X314738Y40870D01*
X314759Y43591D01*
X315230Y44062D01*
X316144Y46268D01*
Y47308D01*
X316853Y48855D01*
X317992Y49177D01*
X324338D01*
X325601Y47913D01*
X327807Y47000D01*
X330193D01*
X332231Y47844D01*
X333031Y47529D01*
X334159Y46845D01*
X334155Y46800D01*
X334535Y41975D01*
X335665Y37269D01*
X337517Y32797D01*
X340046Y28670D01*
X343190Y24989D01*
X346870Y21846D01*
X350997Y19317D01*
X355469Y17465D01*
X360175Y16335D01*
X365000Y15955D01*
X369826Y16335D01*
X374532Y17465D01*
X379004Y19317D01*
X383131Y21846D01*
X386811Y24989D01*
X389954Y28670D01*
X392483Y32797D01*
X394336Y37269D01*
X395466Y41975D01*
X395845Y46800D01*
X395466Y51625D01*
X394336Y56332D01*
X392483Y60803D01*
X389954Y64930D01*
X386811Y68611D01*
X383131Y71754D01*
X379004Y74283D01*
X374532Y76136D01*
X369826Y77265D01*
X365000Y77645D01*
X360785Y77313D01*
X359871Y78976D01*
X359833Y79190D01*
X368704Y88061D01*
X369533Y89301D01*
X369824Y90764D01*
Y94438D01*
X371087Y95701D01*
X372000Y97907D01*
Y100294D01*
X371087Y102499D01*
X369399Y104187D01*
X369332Y104525D01*
X373244Y108438D01*
X374073Y109678D01*
X374364Y111141D01*
Y122383D01*
X375551Y123569D01*
X376465Y125775D01*
Y128162D01*
X375551Y130367D01*
X373863Y132055D01*
X371658Y132968D01*
X369271D01*
X368005Y133814D01*
Y147800D01*
X346505D01*
Y145624D01*
X346380D01*
X344917Y145332D01*
X343677Y144504D01*
X338831Y139658D01*
X307834D01*
X306371Y139367D01*
X305131Y138538D01*
X304593Y138000D01*
X302806D01*
X300601Y137086D01*
X298913Y135399D01*
X298000Y133194D01*
Y130807D01*
X298913Y128601D01*
X299515Y128000D01*
X298913Y127399D01*
X298000Y125194D01*
Y122807D01*
X298913Y120601D01*
X300601Y118913D01*
X302806Y118000D01*
X305194D01*
X307399Y118913D01*
X309087Y120601D01*
X310000Y122807D01*
Y125194D01*
X309912Y125406D01*
X312783Y128277D01*
X336043D01*
X336872Y126277D01*
X335794Y125199D01*
X334880Y122993D01*
Y120607D01*
X335794Y118401D01*
X337481Y116713D01*
X339687Y115800D01*
X342074D01*
X344252Y116702D01*
X346505D01*
Y115800D01*
X346965D01*
Y112211D01*
X344965Y110570D01*
X344873Y110588D01*
X327897D01*
X327399Y111087D01*
X325193Y112000D01*
X322807D01*
X320601Y111087D01*
X319445Y109930D01*
X317486Y110086D01*
X317149Y110248D01*
X317087Y110399D01*
X315399Y112086D01*
X313193Y113000D01*
X310807D01*
X308601Y112086D01*
X307640Y111125D01*
X306914Y110399D01*
X305043Y111109D01*
X304773Y111379D01*
X302568Y112292D01*
X300181D01*
X297976Y111379D01*
X296713Y110116D01*
X293000D01*
Y111300D01*
X263756D01*
X263460Y111359D01*
X237000D01*
X235830Y111126D01*
X234837Y110463D01*
X234174Y109471D01*
X233941Y108300D01*
Y95300D01*
X234174Y94130D01*
X234837Y93137D01*
X235830Y92474D01*
X237000Y92241D01*
X263460D01*
X263641Y92277D01*
X265460Y91397D01*
Y77800D01*
X284000D01*
Y76800D01*
X285000D01*
Y61760D01*
X299706D01*
Y46670D01*
X299998Y45207D01*
X300826Y43967D01*
X315477Y29316D01*
Y23381D01*
X314861Y23216D01*
X312239Y21702D01*
X310098Y19561D01*
X308584Y16939D01*
X307800Y14014D01*
Y10986D01*
X308584Y8061D01*
X310098Y5439D01*
X310478Y5059D01*
X309650Y3059D01*
X303551D01*
X302722Y5059D01*
X303102Y5439D01*
X304617Y8061D01*
X305400Y10986D01*
Y14014D01*
X304617Y16939D01*
X303102Y19561D01*
X300961Y21702D01*
X298339Y23216D01*
X295414Y24000D01*
X292386D01*
X289461Y23216D01*
X286839Y21702D01*
X284698Y19561D01*
X283184Y16939D01*
X282400Y14014D01*
Y10986D01*
X283184Y8061D01*
X284698Y5439D01*
X285078Y5059D01*
X284250Y3059D01*
X278151D01*
X277322Y5059D01*
X277703Y5439D01*
X279216Y8061D01*
X280000Y10986D01*
Y14014D01*
X279216Y16939D01*
X277703Y19561D01*
X275561Y21702D01*
X272939Y23216D01*
X270014Y24000D01*
X266986D01*
X264061Y23216D01*
X261439Y21702D01*
X259298Y19561D01*
X257784Y16939D01*
X257000Y14014D01*
Y10986D01*
X257784Y8061D01*
X259298Y5439D01*
X259678Y5059D01*
X258850Y3059D01*
X252751D01*
X251922Y5059D01*
X252302Y5439D01*
X253817Y8061D01*
X254600Y10986D01*
Y14014D01*
X253817Y16939D01*
X252302Y19561D01*
X250161Y21702D01*
X247539Y23216D01*
X244614Y24000D01*
X241586D01*
X238661Y23216D01*
X236039Y21702D01*
X233898Y19561D01*
X232384Y16939D01*
X231600Y14014D01*
Y10986D01*
X232384Y8061D01*
X233898Y5439D01*
X234278Y5059D01*
X233450Y3059D01*
X227351D01*
X226522Y5059D01*
X226903Y5439D01*
X228417Y8061D01*
X229200Y10986D01*
Y14014D01*
X228417Y16939D01*
X226903Y19561D01*
X224761Y21702D01*
X222139Y23216D01*
X219214Y24000D01*
X216186D01*
X213261Y23216D01*
X210639Y21702D01*
X208498Y19561D01*
X206984Y16939D01*
X206200Y14014D01*
Y10986D01*
X206984Y8061D01*
X208498Y5439D01*
X208878Y5059D01*
X208050Y3059D01*
X201951D01*
X201122Y5059D01*
X201502Y5439D01*
X203016Y8061D01*
X203800Y10986D01*
Y14014D01*
X203016Y16939D01*
X201502Y19561D01*
X199361Y21702D01*
X196739Y23216D01*
X193814Y24000D01*
X190786D01*
X187861Y23216D01*
X185239Y21702D01*
X183098Y19561D01*
X181584Y16939D01*
X180800Y14014D01*
Y10986D01*
X181584Y8061D01*
X183098Y5439D01*
X183478Y5059D01*
X182650Y3059D01*
X176551D01*
X175722Y5059D01*
X176103Y5439D01*
X177617Y8061D01*
X178400Y10986D01*
Y14014D01*
X177617Y16939D01*
X176103Y19561D01*
X173961Y21702D01*
X171339Y23216D01*
X168414Y24000D01*
X165386D01*
X162461Y23216D01*
X159839Y21702D01*
X157698Y19561D01*
X156184Y16939D01*
X155400Y14014D01*
Y10986D01*
X156184Y8061D01*
X157698Y5439D01*
X158078Y5059D01*
X157250Y3059D01*
X151151D01*
X150322Y5059D01*
X150702Y5439D01*
X152217Y8061D01*
X153000Y10986D01*
Y14014D01*
X152217Y16939D01*
X150702Y19561D01*
X148561Y21702D01*
X145939Y23216D01*
X143014Y24000D01*
X139986D01*
X137061Y23216D01*
X134439Y21702D01*
X132298Y19561D01*
X130784Y16939D01*
X130000Y14014D01*
Y10986D01*
X130784Y8061D01*
X132298Y5439D01*
X132678Y5059D01*
X131850Y3059D01*
X125100D01*
X124272Y5059D01*
X124934Y5721D01*
X126388Y8239D01*
X127140Y11047D01*
Y11500D01*
X105060D01*
Y11047D01*
X105813Y8239D01*
X107266Y5721D01*
X107929Y5059D01*
X107100Y3059D01*
X100351D01*
X99522Y5059D01*
X99902Y5439D01*
X101417Y8061D01*
X102200Y10986D01*
Y14014D01*
X101417Y16939D01*
X99902Y19561D01*
X97761Y21702D01*
X95139Y23216D01*
X92214Y24000D01*
X89186D01*
X86261Y23216D01*
X83639Y21702D01*
X81498Y19561D01*
X79984Y16939D01*
X79200Y14014D01*
Y10986D01*
X79984Y8061D01*
X81498Y5439D01*
X81878Y5059D01*
X81050Y3059D01*
X45000D01*
X42251Y3059D01*
X36800Y3776D01*
X31490Y5199D01*
X26410Y7303D01*
X21649Y10052D01*
X17287Y13399D01*
X13399Y17287D01*
X10052Y21649D01*
X7303Y26410D01*
X5199Y31489D01*
X3776Y36800D01*
X3059Y42251D01*
Y45000D01*
Y66721D01*
X5059Y67707D01*
X6444Y66645D01*
X9606Y65335D01*
X13000Y64888D01*
X16394Y65335D01*
X18521Y66216D01*
X19325Y65538D01*
X19842Y64598D01*
X17517Y60803D01*
X15665Y56332D01*
X14535Y51625D01*
X14155Y46800D01*
X14535Y41975D01*
X15665Y37269D01*
X17517Y32797D01*
X20046Y28670D01*
X23189Y24989D01*
X26870Y21846D01*
X30997Y19317D01*
X35468Y17465D01*
X40175Y16335D01*
X45000Y15955D01*
X49825Y16335D01*
X54532Y17465D01*
X59004Y19317D01*
X63130Y21846D01*
X66811Y24989D01*
X69954Y28670D01*
X72483Y32797D01*
X74335Y37269D01*
X75465Y41975D01*
X75845Y46800D01*
X75465Y51625D01*
X74335Y56332D01*
X72483Y60803D01*
X69954Y64930D01*
X66811Y68611D01*
X63130Y71754D01*
X59004Y74283D01*
X54532Y76136D01*
X51933Y76759D01*
X51196Y78398D01*
X52185Y79356D01*
X53903Y79014D01*
X56597D01*
X58315Y79356D01*
X58807Y79684D01*
X60560Y80660D01*
X61864Y79789D01*
X63403Y79483D01*
X63750D01*
Y85000D01*
Y90518D01*
X63403D01*
X61864Y90211D01*
X60560Y89340D01*
X58807Y90316D01*
X58315Y90645D01*
X56597Y90986D01*
X53903D01*
X52185Y90645D01*
X52141Y90615D01*
X49511Y91011D01*
X49745Y93260D01*
X50087Y93601D01*
X51000Y95807D01*
Y98194D01*
X50487Y99432D01*
X52103Y100758D01*
X52537Y100468D01*
X54000Y100177D01*
X79000D01*
X80463Y100468D01*
X81704Y101296D01*
X87224Y106817D01*
X88053Y108057D01*
X88344Y109521D01*
Y140479D01*
X88053Y141943D01*
X87224Y143183D01*
X85153Y145254D01*
X83913Y146082D01*
X82450Y146374D01*
X75528D01*
X75061Y147072D01*
X73605Y148045D01*
X71887Y148386D01*
X68892D01*
X67175Y148045D01*
X65718Y147072D01*
X65035Y146049D01*
X63035Y146488D01*
Y147340D01*
X53745D01*
Y141800D01*
X51745D01*
Y147340D01*
X48633D01*
X47868Y149188D01*
X51348Y152668D01*
X69626D01*
X71089Y152959D01*
X72330Y153788D01*
X87663Y169121D01*
X88492Y170361D01*
X88783Y171825D01*
Y191194D01*
X104385Y206796D01*
X129698D01*
X140348Y196145D01*
X141588Y195317D01*
X143052Y195026D01*
X149876D01*
X151339Y195317D01*
X152579Y196145D01*
X155724Y199290D01*
X156552Y200530D01*
X156844Y201993D01*
Y203358D01*
X158087Y204601D01*
X159000Y206807D01*
Y209193D01*
X158087Y211399D01*
X156399Y213086D01*
X154193Y214000D01*
X151806D01*
X149601Y213086D01*
X147913Y211399D01*
X147167Y209597D01*
X146194Y210000D01*
X144407D01*
X138314Y216093D01*
X137074Y216922D01*
X135611Y217213D01*
X98377D01*
X96913Y216922D01*
X95673Y216093D01*
X78296Y198716D01*
X77468Y197476D01*
X77177Y196013D01*
Y175091D01*
X66133Y164047D01*
X46697D01*
X45234Y163756D01*
X43994Y162927D01*
X31779Y150712D01*
X30950Y149472D01*
X30659Y148009D01*
Y135066D01*
X30593Y135000D01*
X28807D01*
X26601Y134087D01*
X24913Y132399D01*
X24000Y130194D01*
Y127807D01*
X24913Y125601D01*
X26601Y123913D01*
X28807Y123000D01*
X29375D01*
X33279Y119096D01*
X34519Y118268D01*
X35982Y117977D01*
X41995D01*
Y115624D01*
X41504D01*
X40041Y115332D01*
X38801Y114504D01*
X36157Y111861D01*
X35329Y110620D01*
X35128Y109614D01*
X33774Y108260D01*
X32861Y106054D01*
Y103667D01*
X33774Y101462D01*
X35462Y99775D01*
X35619Y99710D01*
X36009Y97748D01*
X30705Y92444D01*
X27950D01*
X27535Y92362D01*
X25535Y93932D01*
Y97800D01*
X13995D01*
Y98800D01*
X12995D01*
Y107340D01*
X3059D01*
X3059Y146260D01*
X12995D01*
Y154800D01*
X13995D01*
Y155800D01*
X25535D01*
Y163340D01*
X21662D01*
X20984Y165340D01*
X22272Y166329D01*
X24355Y169044D01*
X25665Y172207D01*
X26112Y175600D01*
X25665Y178994D01*
X24864Y180929D01*
D01*
D01*
X26528Y182138D01*
D01*
D01*
X26870Y181846D01*
X30997Y179317D01*
X32000Y178901D01*
D01*
X35468Y177465D01*
X40175Y176335D01*
X45000Y175955D01*
X49825Y176335D01*
X54532Y177465D01*
X59004Y179317D01*
X63130Y181846D01*
X66811Y184989D01*
X69954Y188670D01*
X72483Y192797D01*
X74335Y197268D01*
X75465Y201975D01*
X75845Y206800D01*
X75465Y211625D01*
X74335Y216332D01*
X72483Y220804D01*
X69954Y224930D01*
X66811Y228611D01*
X63130Y231754D01*
X59004Y234283D01*
X54532Y236136D01*
X49825Y237265D01*
X45000Y237645D01*
X40175Y237265D01*
X35468Y236136D01*
X30997Y234283D01*
X26870Y231754D01*
X23189Y228611D01*
X20046Y224930D01*
X17517Y220804D01*
X15665Y216332D01*
X14535Y211625D01*
X14155Y206800D01*
X14535Y201975D01*
X15665Y197268D01*
X17517Y192797D01*
X19842Y189002D01*
X19324Y188062D01*
X18521Y187385D01*
X16394Y188266D01*
X13000Y188712D01*
X9606Y188266D01*
X6444Y186956D01*
X5059Y185893D01*
X3059Y186879D01*
Y208600D01*
Y211349D01*
X3776Y216800D01*
X5199Y222111D01*
X7303Y227190D01*
X10052Y231951D01*
X13399Y236313D01*
X17287Y240201D01*
X21649Y243548D01*
X26410Y246297D01*
X31490Y248401D01*
X36800Y249824D01*
X42251Y250541D01*
X45000Y250541D01*
X157900Y250541D01*
X158729Y248542D01*
X158066Y247879D01*
X156613Y245361D01*
X155860Y242554D01*
Y242100D01*
X177940D01*
Y242554D01*
X177188Y245361D01*
X175735Y247879D01*
X175072Y248542D01*
X175900Y250541D01*
X182650D01*
X183478Y248542D01*
X183098Y248161D01*
X181584Y245539D01*
X180800Y242614D01*
Y239586D01*
X181584Y236661D01*
X183098Y234039D01*
X185239Y231898D01*
X187861Y230384D01*
X190786Y229600D01*
X193814D01*
X196739Y230384D01*
X199361Y231898D01*
X201503Y234039D01*
X203017Y236661D01*
X203800Y239586D01*
Y242614D01*
X203017Y245539D01*
X201503Y248161D01*
X201122Y248542D01*
X201951Y250541D01*
X208050Y250541D01*
X208878Y248542D01*
D02*
G37*
G36*
X263460Y102800D02*
X278000D01*
Y100800D01*
X263460D01*
Y95300D01*
X237000D01*
Y108300D01*
X263460D01*
Y102800D01*
D02*
G37*
%LPC*%
G36*
X177940Y240100D02*
X167900D01*
Y230060D01*
X168354D01*
X171162Y230812D01*
X173679Y232266D01*
X175735Y234321D01*
X177188Y236839D01*
X177940Y239647D01*
Y240100D01*
D02*
G37*
G36*
X165900D02*
X155860D01*
Y239647D01*
X156613Y236839D01*
X158066Y234321D01*
X160122Y232266D01*
X162639Y230812D01*
X165447Y230060D01*
X165900D01*
Y240100D01*
D02*
G37*
G36*
X267500Y210100D02*
X261017D01*
Y208969D01*
X261387Y207112D01*
X262438Y205538D01*
X264012Y204486D01*
X265869Y204117D01*
X267500D01*
Y210100D01*
D02*
G37*
G36*
X227540Y211840D02*
X206000D01*
Y191550D01*
X227540D01*
Y211840D01*
D02*
G37*
G36*
X204000D02*
X182460D01*
Y191550D01*
X204000D01*
Y211840D01*
D02*
G37*
G36*
X144540Y191840D02*
X127000D01*
Y177800D01*
X144540D01*
Y191840D01*
D02*
G37*
G36*
X125000D02*
X107460D01*
Y177800D01*
X125000D01*
Y191840D01*
D02*
G37*
G36*
X227540Y189550D02*
X206000D01*
Y169260D01*
X227540D01*
Y189550D01*
D02*
G37*
G36*
X204000D02*
X182460D01*
Y169260D01*
X204000D01*
Y189550D01*
D02*
G37*
G36*
X25535Y153800D02*
X14995D01*
Y146260D01*
X25535D01*
Y153800D01*
D02*
G37*
G36*
X395005Y153800D02*
X384465D01*
Y146260D01*
X395005D01*
Y153800D01*
D02*
G37*
G36*
X144540Y175800D02*
X126000D01*
X107460D01*
Y163359D01*
X107460Y161760D01*
X105626Y161359D01*
X103000D01*
X101830Y161126D01*
X100837Y160463D01*
X100174Y159471D01*
X99942Y158300D01*
Y131800D01*
X100174Y130630D01*
X100837Y129637D01*
X101830Y128974D01*
X103000Y128741D01*
X147000D01*
X148171Y128974D01*
X149163Y129637D01*
X149826Y130630D01*
X150059Y131800D01*
Y142760D01*
X151771Y143731D01*
X172000D01*
X174089Y144006D01*
X176035Y144812D01*
X177706Y146094D01*
X178988Y147766D01*
X179794Y149712D01*
X180069Y151800D01*
X179794Y153889D01*
X178988Y155835D01*
X177706Y157506D01*
X176035Y158788D01*
X174089Y159594D01*
X172000Y159869D01*
X150000D01*
Y161300D01*
X146350D01*
X144540Y161760D01*
X144540Y163300D01*
Y175800D01*
D02*
G37*
G36*
X292540Y135840D02*
X279000D01*
Y127800D01*
X292540D01*
Y135840D01*
D02*
G37*
G36*
Y125800D02*
X279000D01*
Y117760D01*
X292540D01*
Y125800D01*
D02*
G37*
G36*
X253250Y135898D02*
X246750D01*
X244396Y135588D01*
X242201Y134679D01*
X240317Y133233D01*
X238871Y131349D01*
X237962Y129155D01*
X237652Y126800D01*
X237962Y124445D01*
X238871Y122251D01*
X240317Y120367D01*
X242201Y118921D01*
X244396Y118012D01*
X246750Y117702D01*
X253250D01*
X255605Y118012D01*
X257799Y118921D01*
X259683Y120367D01*
X261129Y122251D01*
X261460Y123050D01*
X263460Y122653D01*
Y117760D01*
X277000D01*
Y126800D01*
Y135840D01*
X263460D01*
Y130948D01*
X261460Y130550D01*
X261129Y131349D01*
X259683Y133233D01*
X257799Y134679D01*
X255605Y135588D01*
X253250Y135898D01*
D02*
G37*
G36*
X206517Y138320D02*
X203484D01*
X200554Y137535D01*
X197927Y136018D01*
X195782Y133874D01*
X194265Y131247D01*
X193480Y128317D01*
Y125283D01*
X194265Y122354D01*
X195782Y119727D01*
X197927Y117582D01*
X200554Y116065D01*
X203484Y115280D01*
X206517D01*
X209447Y116065D01*
X212074Y117582D01*
X214219Y119727D01*
X215735Y122354D01*
X216520Y125283D01*
Y128317D01*
X215735Y131247D01*
X214219Y133874D01*
X212074Y136018D01*
X209447Y137535D01*
X206517Y138320D01*
D02*
G37*
G36*
X149540Y110840D02*
X136000D01*
Y102800D01*
X149540D01*
Y110840D01*
D02*
G37*
G36*
X134000D02*
X120460D01*
Y102800D01*
X134000D01*
Y110840D01*
D02*
G37*
G36*
X25535Y107340D02*
X14995D01*
Y99800D01*
X25535D01*
Y107340D01*
D02*
G37*
G36*
X395005Y107340D02*
X384465D01*
Y99800D01*
X395005D01*
Y107340D01*
D02*
G37*
G36*
Y97800D02*
X384465D01*
Y90260D01*
X395005D01*
Y97800D01*
D02*
G37*
G36*
X66097Y90518D02*
X65750D01*
Y86000D01*
X70117D01*
Y86498D01*
X69811Y88036D01*
X68940Y89340D01*
X67636Y90211D01*
X66097Y90518D01*
D02*
G37*
G36*
X70117Y84000D02*
X65750D01*
Y79483D01*
X66097D01*
X67636Y79789D01*
X68940Y80660D01*
X69811Y81965D01*
X70117Y83503D01*
Y84000D01*
D02*
G37*
G36*
X149540Y100800D02*
X135000D01*
X120460D01*
Y93840D01*
X120460Y92760D01*
X118841Y91840D01*
X107460D01*
Y77800D01*
X126000D01*
X144540D01*
Y90760D01*
X144540Y91840D01*
X146159Y92760D01*
X149540D01*
Y100800D01*
D02*
G37*
G36*
X173352Y122193D02*
X170965D01*
X168760Y121280D01*
X167072Y119592D01*
X166158Y117387D01*
Y115000D01*
X167072Y112794D01*
X168273Y111593D01*
Y83403D01*
X166301Y82587D01*
X164614Y80899D01*
X163700Y78694D01*
Y76307D01*
X164614Y74101D01*
X166301Y72414D01*
X168507Y71500D01*
X170894D01*
X173099Y72414D01*
X174787Y74101D01*
X175700Y76307D01*
Y78694D01*
X175552Y79051D01*
X175629Y79166D01*
X175920Y80629D01*
Y111469D01*
X177245Y112794D01*
X178158Y115000D01*
Y117387D01*
X177245Y119592D01*
X175557Y121280D01*
X173352Y122193D01*
D02*
G37*
G36*
X227540Y84340D02*
X206000D01*
Y64050D01*
X227540D01*
Y84340D01*
D02*
G37*
G36*
X204000D02*
X182460D01*
Y64050D01*
X204000D01*
Y84340D01*
D02*
G37*
G36*
X283000Y75800D02*
X265460D01*
Y61760D01*
X283000D01*
Y75800D01*
D02*
G37*
G36*
X144540D02*
X127000D01*
Y61760D01*
X144540D01*
Y75800D01*
D02*
G37*
G36*
X125000D02*
X107460D01*
Y61760D01*
X125000D01*
Y75800D01*
D02*
G37*
G36*
X227540Y62050D02*
X206000D01*
Y41760D01*
X227540D01*
Y62050D01*
D02*
G37*
G36*
X204000D02*
X182460D01*
Y41760D01*
X204000D01*
Y62050D01*
D02*
G37*
G36*
X117554Y23540D02*
X117100D01*
Y13500D01*
X127140D01*
Y13953D01*
X126388Y16761D01*
X124934Y19279D01*
X122879Y21334D01*
X120361Y22788D01*
X117554Y23540D01*
D02*
G37*
G36*
X115100D02*
X114647D01*
X111839Y22788D01*
X109321Y21334D01*
X107266Y19279D01*
X105813Y16761D01*
X105060Y13953D01*
Y13500D01*
X115100D01*
Y23540D01*
D02*
G37*
%LPD*%
G36*
X120460Y152800D02*
X135000D01*
Y151800D01*
X136000D01*
Y142760D01*
X147000D01*
Y131800D01*
X103000D01*
Y158300D01*
X120460D01*
Y152800D01*
D02*
G37*
%LPC*%
G36*
X134000Y150800D02*
X120460D01*
Y142760D01*
X134000D01*
Y150800D01*
D02*
G37*
%LPD*%
D10*
X268500Y226100D02*
D03*
Y211100D02*
D03*
D11*
X280500Y214250D02*
D03*
Y222950D02*
D03*
D12*
X335630Y165550D02*
D03*
Y156050D02*
D03*
X346630Y88050D02*
D03*
Y97550D02*
D03*
Y165550D02*
D03*
Y156050D02*
D03*
X324630Y88050D02*
D03*
Y97550D02*
D03*
Y165550D02*
D03*
Y156050D02*
D03*
X335630Y88050D02*
D03*
Y97550D02*
D03*
X70390Y142550D02*
D03*
Y133050D02*
D03*
Y112050D02*
D03*
Y121550D02*
D03*
D13*
X295000Y223600D02*
D03*
Y218600D02*
D03*
Y213600D02*
D03*
X321000Y223600D02*
D03*
Y218600D02*
D03*
Y213600D02*
D03*
D14*
X303000Y205600D02*
D03*
X308000D02*
D03*
X313000D02*
D03*
Y231600D02*
D03*
X308000D02*
D03*
X303000D02*
D03*
D15*
X13995Y98800D02*
D03*
Y154800D02*
D03*
X396005Y154800D02*
D03*
Y98800D02*
D03*
D16*
X52745Y121800D02*
D03*
Y131800D02*
D03*
Y141800D02*
D03*
Y111800D02*
D03*
X357255Y131800D02*
D03*
Y121800D02*
D03*
Y111800D02*
D03*
Y141800D02*
D03*
D17*
X44250Y85000D02*
D03*
X29750Y85000D02*
D03*
D18*
X55250D02*
D03*
X64750Y85000D02*
D03*
D19*
X278000Y151800D02*
D03*
Y101800D02*
D03*
X135000D02*
D03*
X278000Y126800D02*
D03*
X135000Y151800D02*
D03*
D20*
X284000Y176800D02*
D03*
Y76800D02*
D03*
X126000D02*
D03*
Y176800D02*
D03*
D21*
X205000Y63050D02*
D03*
Y190550D02*
D03*
D38*
X172000Y151800D02*
D03*
X396005Y126800D02*
D03*
X246000Y183000D02*
D03*
X145000Y204000D02*
D03*
X153000Y208000D02*
D03*
X329000Y53000D02*
D03*
X310144Y47461D02*
D03*
X172158Y116193D02*
D03*
X65295Y127716D02*
D03*
X366009Y172474D02*
D03*
X355079Y102408D02*
D03*
X309366Y176262D02*
D03*
X222700Y152500D02*
D03*
X169700Y77500D02*
D03*
X322000Y60000D02*
D03*
X295791Y99727D02*
D03*
X306000Y100000D02*
D03*
X312000Y107000D02*
D03*
X301374Y106292D02*
D03*
X304000Y132000D02*
D03*
Y124000D02*
D03*
X45000Y97000D02*
D03*
X340880Y121800D02*
D03*
X324000Y106000D02*
D03*
X324630Y148370D02*
D03*
X254000Y223000D02*
D03*
X258200Y151800D02*
D03*
X209000Y228000D02*
D03*
X317948Y239682D02*
D03*
X339500Y245900D02*
D03*
X328409Y245906D02*
D03*
X311672Y223361D02*
D03*
X306302Y214003D02*
D03*
X366000Y99100D02*
D03*
X265000Y245100D02*
D03*
X258381Y237217D02*
D03*
X38861Y104861D02*
D03*
X30000Y129000D02*
D03*
X39000D02*
D03*
X29000Y99000D02*
D03*
X276000Y204000D02*
D03*
X285520Y204277D02*
D03*
X278400Y234200D02*
D03*
X340473Y173942D02*
D03*
X287000Y234100D02*
D03*
X330136Y172592D02*
D03*
X336148Y233472D02*
D03*
X316241Y170564D02*
D03*
X370465Y126968D02*
D03*
X65000Y76000D02*
D03*
D40*
X13000Y78000D02*
D03*
Y175600D02*
D03*
X397000Y175600D02*
D03*
D41*
X294000Y208600D02*
D03*
D42*
X298000Y204600D02*
D03*
D43*
X318000D02*
D03*
D44*
X322000Y228600D02*
D03*
D45*
X318000Y232600D02*
D03*
D46*
X294000Y228600D02*
D03*
D47*
X298000Y232600D02*
D03*
D48*
X322000Y208600D02*
D03*
D49*
X322000Y188000D02*
D03*
X311000D02*
D03*
D50*
X263000Y176800D02*
X284000D01*
X251000Y101800D02*
X278000D01*
X114000Y151800D02*
X135000D01*
Y138800D02*
Y151800D01*
X172000D01*
X135000Y101800D02*
X153000D01*
X117000D02*
X135000D01*
Y116709D01*
X278000Y126800D02*
X292910D01*
X278000D02*
Y136600D01*
Y117000D02*
Y126800D01*
X284000Y176800D02*
X291500Y169300D01*
X296610D02*
X305811Y160099D01*
X291500Y169300D02*
X296610D01*
X305811Y160099D02*
Y160099D01*
X258200Y151800D02*
X278000D01*
X13995Y98800D02*
Y113795D01*
X396005Y98800D02*
Y154800D01*
X13995Y134995D02*
Y154800D01*
X396005Y84425D02*
Y98800D01*
X383533D02*
X396005D01*
D51*
X131281Y210619D02*
X143052Y198849D01*
X102801Y210619D02*
X131281D01*
X84959Y192777D02*
X102801Y210619D01*
X81000Y196013D02*
X98377Y213389D01*
X135611D02*
X145000Y204000D01*
X98377Y213389D02*
X135611D01*
X258235Y195952D02*
X295952D01*
X246000Y183717D02*
X258235Y195952D01*
X259177Y191320D02*
X298520D01*
X253700Y185844D02*
X259177Y191320D01*
X253700Y176500D02*
Y185844D01*
X246000Y183000D02*
Y183717D01*
X143052Y198849D02*
X149876D01*
X153020Y201993D02*
Y207980D01*
X149876Y198849D02*
X153020Y201993D01*
X153000Y208000D02*
X153020Y207980D01*
X317000Y53000D02*
X329000D01*
X309779Y60221D02*
X317000Y53000D01*
X306770Y50835D02*
Y91591D01*
Y50835D02*
X310144Y47461D01*
X303530Y46670D02*
X319300Y30900D01*
X303530Y46670D02*
Y90512D01*
X319300Y12500D02*
Y30900D01*
X169700Y77500D02*
Y78233D01*
X172096Y80629D02*
Y116131D01*
X169700Y78233D02*
X172096Y80629D01*
X362949Y169414D02*
X366009Y172474D01*
X360750Y165550D02*
X362949Y167749D01*
Y169414D01*
X322000Y208600D02*
X327046Y203554D01*
Y193639D02*
Y203554D01*
X309366Y176262D02*
X310529D01*
X312495Y178228D01*
X324663D01*
X328987Y182552D01*
Y191698D01*
X327046Y193639D02*
X328987Y191698D01*
X82450Y142550D02*
X84521Y140479D01*
X79000Y104000D02*
X84521Y109521D01*
Y140479D01*
X222700Y152500D02*
X229700D01*
X253700Y176500D01*
X84959Y171825D02*
Y192777D01*
X69626Y156491D02*
X84959Y171825D01*
X39000Y145727D02*
X49764Y156491D01*
X69626D01*
X34482Y148009D02*
X46697Y160224D01*
X67717D02*
X81000Y173507D01*
X46697Y160224D02*
X67717D01*
X298520Y191320D02*
X303000Y195800D01*
Y205600D01*
X306861Y96763D02*
Y99139D01*
X309779Y60221D02*
Y93845D01*
X306861Y96763D02*
X309779Y93845D01*
X306000Y100000D02*
X306861Y99139D01*
X300909Y97451D02*
Y105827D01*
Y97451D02*
X306770Y91591D01*
X297266Y96777D02*
X303530Y90512D01*
X295791Y98509D02*
Y99727D01*
Y98509D02*
X297266Y97035D01*
Y96777D02*
Y97035D01*
X311980Y97937D02*
X313584Y96333D01*
Y68416D02*
X322000Y60000D01*
X313584Y68416D02*
Y96333D01*
X311980Y97937D02*
Y103079D01*
X312000Y103099D02*
Y107000D01*
X311980Y103079D02*
X312000Y103099D01*
X300909Y105827D02*
X301374Y106292D01*
X282492D02*
X301374D01*
X278000Y101800D02*
X282492Y106292D01*
X304000Y132000D02*
X307834Y135834D01*
X340415D01*
X304000Y124901D02*
X311199Y132100D01*
X304000Y124000D02*
Y124901D01*
X311199Y132100D02*
X356955D01*
X308000Y189000D02*
X310000Y191000D01*
Y196000D02*
X313000Y199000D01*
X310000Y191000D02*
Y196000D01*
X52745Y105255D02*
X54000Y104000D01*
X52745Y105255D02*
Y111800D01*
X54000Y104000D02*
X79000D01*
X70894Y142550D02*
X82450D01*
X324630Y148370D02*
Y156050D01*
X277350Y226100D02*
X280500Y222950D01*
X268500Y226100D02*
X277350D01*
X295952Y195952D02*
X298000Y198000D01*
Y204600D01*
X313000Y199000D02*
Y205600D01*
X319000Y189000D02*
Y197000D01*
X318000Y198000D02*
X319000Y197000D01*
X318000Y198000D02*
Y204600D01*
X230000Y228000D02*
X243100Y241100D01*
X209000Y228000D02*
X230000D01*
X303000Y231600D02*
Y237483D01*
X280500Y222950D02*
X281150Y223600D01*
X295000D01*
X308000Y231600D02*
Y238609D01*
X318000Y232600D02*
Y239630D01*
X317444Y240186D02*
X317948Y239682D01*
X318000Y239630D01*
X346380Y141800D02*
X357255D01*
X321000Y223600D02*
X328600D01*
X330077Y225077D01*
Y236477D01*
X339500Y245900D01*
X326710Y243124D02*
X328409Y244823D01*
X325538Y228600D02*
X326710Y229772D01*
X322000Y228600D02*
X325538D01*
X328409Y244823D02*
Y245906D01*
X326710Y229772D02*
Y243124D01*
X313002Y225619D02*
Y231599D01*
X311672Y223361D02*
Y224290D01*
X313002Y225619D01*
X295202Y213801D02*
X306100D01*
X295000Y213600D02*
X295202Y213801D01*
X306100D02*
X306302Y214003D01*
X366000Y90764D02*
Y99100D01*
X340415Y135834D02*
X346380Y141800D01*
X356955Y132100D02*
X357255Y131800D01*
X301509Y245100D02*
X308000Y238609D01*
X265000Y245100D02*
X301509D01*
X258381Y237217D02*
X271222D01*
X275604Y241600D01*
X298883D01*
X303000Y237483D01*
X38861Y109157D02*
X41504Y111800D01*
X38861Y104861D02*
Y109157D01*
X41504Y111800D02*
X52745D01*
X30000Y127782D02*
X31861Y125921D01*
Y125921D02*
Y125921D01*
Y125921D02*
X35982Y121800D01*
X52745D01*
X30000Y127782D02*
Y129000D01*
X34482Y133482D01*
X39000Y129000D02*
Y145727D01*
X34482Y133482D02*
Y148009D01*
X289842Y208600D02*
X294000D01*
X285520Y204277D02*
X289842Y208600D01*
X284096Y228600D02*
X294000D01*
X278496Y234200D02*
X284096Y228600D01*
X340272Y173942D02*
X340473D01*
X297122Y237805D02*
X298000Y236927D01*
Y232600D02*
Y236927D01*
X291780Y237805D02*
X297122D01*
X288075Y234100D02*
X291780Y237805D01*
X287000Y234100D02*
X288075D01*
X321000Y218600D02*
X328224D01*
X335672Y226048D01*
Y232997D02*
X336148Y233472D01*
X335672Y226048D02*
Y232997D01*
X321000Y213600D02*
X325500D01*
X370465Y126968D02*
X370541Y126892D01*
Y111141D02*
Y126892D01*
X360980Y101581D02*
X370541Y111141D01*
X360980Y91293D02*
Y101581D01*
X355079Y91285D02*
Y102408D01*
X335630Y169300D02*
X340272Y173942D01*
X324630Y170681D02*
X326136Y172187D01*
X329731D01*
X330136Y172592D01*
X324630Y165550D02*
Y170681D01*
X335630Y165550D02*
Y169300D01*
X346630Y165550D02*
X360750D01*
X324630Y156050D02*
X335630D01*
X346630D01*
X354791Y79555D02*
X366000Y90764D01*
X328664Y79555D02*
X354791D01*
X324630Y83588D02*
X328664Y79555D01*
X324630Y83588D02*
Y88050D01*
X352032Y82345D02*
X360980Y91293D01*
X335630Y83369D02*
Y88050D01*
X336654Y82345D02*
X352032D01*
X335630Y83369D02*
X336654Y82345D01*
X346630Y88050D02*
X351845D01*
X355079Y91285D01*
X81000Y173507D02*
Y196013D01*
X65644Y112050D02*
X70894D01*
X63894Y113800D02*
Y120800D01*
Y113800D02*
X64897Y112797D01*
X65644Y112050D01*
X52745Y121800D02*
X62894D01*
X63894Y120800D01*
X316241Y170564D02*
X321134Y175458D01*
X325810D02*
X331757Y181405D01*
X325500Y213600D02*
X331757Y207344D01*
X321134Y175458D02*
X325810D01*
X331757Y181405D02*
Y207344D01*
D52*
X65295Y127716D02*
X66081Y128501D01*
Y128891D01*
X52745Y131800D02*
X53840Y130705D01*
X61543D01*
X65869Y125921D02*
Y127142D01*
X70240Y133050D02*
X70390D01*
X64531Y127716D02*
X65295D01*
X65869Y125921D02*
X70240Y121550D01*
X65295Y127716D02*
X65869Y127142D01*
X66081Y128891D02*
X70240Y133050D01*
X61543Y130705D02*
X64531Y127716D01*
X70240Y121550D02*
X70390D01*
X344058Y114192D02*
X346450Y111800D01*
X361380Y154800D02*
X396005D01*
X41176Y96426D02*
X44426D01*
X45000Y97000D01*
X29750Y85000D02*
X41176Y96426D01*
X324000Y106000D02*
X344873D01*
X335630Y97550D02*
Y105509D01*
X335139Y106000D02*
X335630Y105509D01*
X324315Y97865D02*
Y105685D01*
X324000Y106000D02*
X324315Y105685D01*
X344873Y106000D02*
X346630Y104243D01*
Y97550D02*
Y104243D01*
X324315Y97865D02*
X324630Y97550D01*
X346450Y111800D02*
X357255D01*
X276000Y204000D02*
Y204050D01*
X268500Y211100D02*
X268950D01*
X276000Y204050D01*
Y204160D02*
X280500Y208660D01*
Y214250D01*
X276000Y204050D02*
Y204160D01*
X354865Y148285D02*
X361380Y154800D01*
X333000Y145000D02*
X336284Y148285D01*
X354865D01*
X44250Y85000D02*
X55250D01*
X55250Y85000D01*
D53*
X125942Y176859D02*
Y193282D01*
X178200Y63050D02*
X205000D01*
X231801D01*
X205000D02*
Y86997D01*
Y39103D02*
Y63050D01*
Y166603D02*
Y190550D01*
Y214497D01*
Y190550D02*
X231801D01*
X178200D02*
X205000D01*
X126000Y176800D02*
X152801D01*
X99200D02*
X126000D01*
Y76800D02*
X152801D01*
X99200D02*
X126000D01*
Y50000D02*
Y76800D01*
X284000Y50000D02*
Y76800D01*
X257200D02*
X284000D01*
D54*
X55674Y150000D02*
X78000D01*
X52745Y147071D02*
X55674Y150000D01*
X52745Y141800D02*
Y147071D01*
X14195Y99000D02*
X29000D01*
X254000Y223000D02*
X257100Y226100D01*
X268500D01*
X13995Y98800D02*
X14195Y99000D01*
D55*
X340880Y121800D02*
X357255D01*
D56*
X280500Y214250D02*
X285918D01*
X290268Y218600D01*
X295000D01*
D57*
X64875Y76125D02*
X65000Y76000D01*
X64875Y76125D02*
Y84875D01*
X64750Y85000D02*
X64875Y84875D01*
D58*
X217700Y12500D02*
D03*
X192300D02*
D03*
X268500D02*
D03*
X293900D02*
D03*
X319300D02*
D03*
X243100D02*
D03*
X90700D02*
D03*
X116100D02*
D03*
X141500D02*
D03*
X166900D02*
D03*
X243100Y241100D02*
D03*
X217700D02*
D03*
X192300D02*
D03*
X166900D02*
D03*
D59*
X365000Y46800D02*
D03*
Y206800D02*
D03*
X45000D02*
D03*
Y46800D02*
D03*
D60*
X205000Y126800D02*
D03*
X250000D02*
D03*
M02*
